<mxfile host="65bd71144e">
    <diagram id="qEYitMw7TptuQpRMIU4g" name="PÃ¡gina-1">
        <mxGraphModel dx="650" dy="409" grid="1" gridSize="10" guides="1" tooltips="1" connect="1" arrows="1" fold="1" page="1" pageScale="1" pageWidth="827" pageHeight="1169" math="0" shadow="0">
            <root>
                <mxCell id="0"/>
                <mxCell id="1" parent="0"/>
                <mxCell id="4" value="" style="edgeStyle=none;html=1;" edge="1" parent="1" source="2" target="3">
                    <mxGeometry relative="1" as="geometry"/>
                </mxCell>
                <mxCell id="2" value="Inicio" style="ellipse;whiteSpace=wrap;html=1;fillColor=#6600CC;" vertex="1" parent="1">
                    <mxGeometry x="450" width="120" height="80" as="geometry"/>
                </mxCell>
                <mxCell id="8" value="" style="edgeStyle=none;html=1;" edge="1" parent="1" source="3" target="7">
                    <mxGeometry relative="1" as="geometry"/>
                </mxCell>
                <mxCell id="3" value="masa corporal&lt;br&gt;&amp;nbsp;(IMC = peso[kg] / altura2 [m])" style="shape=parallelogram;perimeter=parallelogramPerimeter;whiteSpace=wrap;html=1;fixedSize=1;fillColor=#333333;" vertex="1" parent="1">
                    <mxGeometry x="450" y="120" width="120" height="60" as="geometry"/>
                </mxCell>
                <mxCell id="9" style="edgeStyle=none;html=1;exitX=1;exitY=0.5;exitDx=0;exitDy=0;entryX=0.45;entryY=0.033;entryDx=0;entryDy=0;entryPerimeter=0;" edge="1" parent="1" source="7">
                    <mxGeometry relative="1" as="geometry">
                        <mxPoint x="614" y="301.98" as="targetPoint"/>
                        <Array as="points">
                            <mxPoint x="614" y="270"/>
                        </Array>
                    </mxGeometry>
                </mxCell>
                <mxCell id="10" style="edgeStyle=none;html=1;exitX=0;exitY=0.5;exitDx=0;exitDy=0;entryX=0.5;entryY=0;entryDx=0;entryDy=0;" edge="1" parent="1" source="7" target="14">
                    <mxGeometry relative="1" as="geometry">
                        <mxPoint x="200" y="320" as="targetPoint"/>
                        <Array as="points">
                            <mxPoint x="390" y="270"/>
                        </Array>
                    </mxGeometry>
                </mxCell>
                <mxCell id="7" value="16&amp;lt;" style="rhombus;whiteSpace=wrap;html=1;fillColor=#990099;" vertex="1" parent="1">
                    <mxGeometry x="470" y="230" width="80" height="80" as="geometry"/>
                </mxCell>
                <mxCell id="12" value="true" style="text;html=1;align=center;verticalAlign=middle;resizable=0;points=[];autosize=1;strokeColor=#006EAF;fillColor=#1ba1e2;fontColor=#ffffff;" vertex="1" parent="1">
                    <mxGeometry x="560" y="240" width="40" height="20" as="geometry"/>
                </mxCell>
                <mxCell id="13" value="false" style="text;html=1;align=center;verticalAlign=middle;resizable=0;points=[];autosize=1;strokeColor=#6F0000;fillColor=#a20025;fontColor=#ffffff;" vertex="1" parent="1">
                    <mxGeometry x="414" y="240" width="40" height="20" as="geometry"/>
                </mxCell>
                <mxCell id="15" style="edgeStyle=none;html=1;exitX=1;exitY=0.5;exitDx=0;exitDy=0;entryX=0.5;entryY=0;entryDx=0;entryDy=0;startArrow=none;" edge="1" parent="1" source="14">
                    <mxGeometry relative="1" as="geometry">
                        <mxPoint x="480" y="390" as="targetPoint"/>
                        <mxPoint x="470" y="330" as="sourcePoint"/>
                        <Array as="points">
                            <mxPoint x="480" y="340"/>
                        </Array>
                    </mxGeometry>
                </mxCell>
                <mxCell id="16" style="edgeStyle=none;html=1;exitX=0;exitY=0.5;exitDx=0;exitDy=0;entryX=0.5;entryY=0;entryDx=0;entryDy=0;" edge="1" parent="1" source="14" target="23">
                    <mxGeometry relative="1" as="geometry">
                        <mxPoint x="280" y="400" as="targetPoint"/>
                        <Array as="points">
                            <mxPoint x="280" y="340"/>
                            <mxPoint x="280" y="350"/>
                        </Array>
                    </mxGeometry>
                </mxCell>
                <mxCell id="14" value="imc&amp;gt;=16&lt;br&gt;and&lt;br&gt;imc&amp;lt;=17" style="rhombus;whiteSpace=wrap;html=1;fillColor=#990099;" vertex="1" parent="1">
                    <mxGeometry x="350" y="300" width="80" height="80" as="geometry"/>
                </mxCell>
                <mxCell id="18" value="false" style="text;html=1;align=center;verticalAlign=middle;resizable=0;points=[];autosize=1;strokeColor=#6F0000;fillColor=#a20025;fontColor=#ffffff;" vertex="1" parent="1">
                    <mxGeometry x="300" y="310" width="40" height="20" as="geometry"/>
                </mxCell>
                <mxCell id="27" style="edgeStyle=none;html=1;exitX=1;exitY=0.5;exitDx=0;exitDy=0;entryX=0.433;entryY=-0.05;entryDx=0;entryDy=0;entryPerimeter=0;" edge="1" parent="1" source="23">
                    <mxGeometry relative="1" as="geometry">
                        <mxPoint x="361.96000000000004" y="457" as="targetPoint"/>
                        <Array as="points">
                            <mxPoint x="360" y="430"/>
                        </Array>
                    </mxGeometry>
                </mxCell>
                <mxCell id="28" style="edgeStyle=none;html=1;exitX=0;exitY=0.5;exitDx=0;exitDy=0;entryX=0.5;entryY=0;entryDx=0;entryDy=0;" edge="1" parent="1" source="23" target="32">
                    <mxGeometry relative="1" as="geometry">
                        <mxPoint x="200" y="480" as="targetPoint"/>
                        <Array as="points">
                            <mxPoint x="200" y="430"/>
                        </Array>
                    </mxGeometry>
                </mxCell>
                <mxCell id="23" value="imc&amp;gt;=17&lt;br&gt;and&lt;br&gt;imc&amp;lt;=18" style="rhombus;whiteSpace=wrap;html=1;fillColor=#990099;" vertex="1" parent="1">
                    <mxGeometry x="240" y="390" width="80" height="80" as="geometry"/>
                </mxCell>
                <mxCell id="25" value="true" style="text;html=1;align=center;verticalAlign=middle;resizable=0;points=[];autosize=1;strokeColor=#006EAF;fillColor=#1ba1e2;fontColor=#ffffff;" vertex="1" parent="1">
                    <mxGeometry x="430" y="310" width="40" height="20" as="geometry"/>
                </mxCell>
                <mxCell id="29" value="true" style="text;html=1;align=center;verticalAlign=middle;resizable=0;points=[];autosize=1;strokeColor=#006EAF;fillColor=#1ba1e2;fontColor=#ffffff;" vertex="1" parent="1">
                    <mxGeometry x="320" y="400" width="40" height="20" as="geometry"/>
                </mxCell>
                <mxCell id="30" value="false" style="text;html=1;align=center;verticalAlign=middle;resizable=0;points=[];autosize=1;strokeColor=#6F0000;fillColor=#a20025;fontColor=#ffffff;" vertex="1" parent="1">
                    <mxGeometry x="200" y="400" width="40" height="20" as="geometry"/>
                </mxCell>
                <mxCell id="39" style="edgeStyle=none;html=1;exitX=0.5;exitY=1;exitDx=0;exitDy=0;entryX=0.417;entryY=-0.025;entryDx=0;entryDy=0;entryPerimeter=0;" edge="1" parent="1" source="32" target="38">
                    <mxGeometry relative="1" as="geometry"/>
                </mxCell>
                <mxCell id="32" value="imc&amp;gt;=18&lt;br&gt;and&lt;br&gt;imc&amp;lt;=25" style="rhombus;whiteSpace=wrap;html=1;fillColor=#990099;" vertex="1" parent="1">
                    <mxGeometry x="160" y="480" width="80" height="80" as="geometry"/>
                </mxCell>
                <mxCell id="37" value="Bajo peso." style="shape=document;whiteSpace=wrap;html=1;boundedLbl=1;fillColor=#66CC00;" vertex="1" parent="1">
                    <mxGeometry x="300" y="460" width="120" height="80" as="geometry"/>
                </mxCell>
                <mxCell id="38" value="Peso normal (saludable)." style="shape=document;whiteSpace=wrap;html=1;boundedLbl=1;fillColor=#00CC00;" vertex="1" parent="1">
                    <mxGeometry x="150" y="590" width="120" height="80" as="geometry"/>
                </mxCell>
                <mxCell id="40" value="Infrapeso." style="shape=document;whiteSpace=wrap;html=1;boundedLbl=1;fillColor=#66CC00;" vertex="1" parent="1">
                    <mxGeometry x="430" y="390" width="120" height="80" as="geometry"/>
                </mxCell>
                <mxCell id="41" value="Criterio de ingreso en hospital." style="shape=document;whiteSpace=wrap;html=1;boundedLbl=1;fillColor=#66CC00;" vertex="1" parent="1">
                    <mxGeometry x="560" y="300" width="120" height="80" as="geometry"/>
                </mxCell>
                <mxCell id="42" value="" style="endArrow=none;html=1;entryX=0.608;entryY=0.763;entryDx=0;entryDy=0;entryPerimeter=0;exitX=0.408;exitY=0.963;exitDx=0;exitDy=0;exitPerimeter=0;" edge="1" parent="1" source="38" target="41">
                    <mxGeometry width="50" height="50" relative="1" as="geometry">
                        <mxPoint x="290" y="700" as="sourcePoint"/>
                        <mxPoint x="400" y="660" as="targetPoint"/>
                        <Array as="points">
                            <mxPoint x="199" y="680"/>
                            <mxPoint x="630" y="680"/>
                        </Array>
                    </mxGeometry>
                </mxCell>
                <mxCell id="43" value="" style="endArrow=classic;html=1;" edge="1" parent="1">
                    <mxGeometry width="50" height="50" relative="1" as="geometry">
                        <mxPoint x="400" y="680" as="sourcePoint"/>
                        <mxPoint x="400" y="720" as="targetPoint"/>
                    </mxGeometry>
                </mxCell>
                <mxCell id="44" value="Fin" style="ellipse;whiteSpace=wrap;html=1;fillColor=#6600CC;" vertex="1" parent="1">
                    <mxGeometry x="350" y="720" width="120" height="80" as="geometry"/>
                </mxCell>
            </root>
        </mxGraphModel>
    </diagram>
</mxfile>